<svg xmlns="http://www.w3.org/2000/svg" version="1.1" xmlns:xlink="http://www.w3.org/1999/xlink" xmlns:svgjs="http://svgjs.dev/svgjs" width="2000" height="510" viewBox="0 0 2000 510"><g transform="matrix(1,0,0,1,-1.2121212121212466,1.0199947609123114)"><svg viewBox="0 0 396 101" data-background-color="#000000" preserveAspectRatio="xMidYMid meet" height="510" width="2000" xmlns="http://www.w3.org/2000/svg" xmlns:xlink="http://www.w3.org/1999/xlink"><g id="tight-bounds" transform="matrix(1,0,0,1,0.2400000000000091,-0.20199896245517834)"><svg viewBox="0 0 395.52 101.40399792491034" height="101.40399792491034" width="395.52"><g><svg viewBox="0 0 395.52 101.40399792491034" height="101.40399792491034" width="395.52"><g><svg viewBox="0 0 538.87808079487 138.15835302058724" height="101.40399792491034" width="395.52"><g transform="matrix(1,0,0,1,143.35808079487006,0)"><svg viewBox="0 0 395.5199999999999 138.15835302058724" height="138.15835302058724" width="395.5199999999999"><g id="textblocktransform"><svg viewBox="0 0 395.5199999999999 138.15835302058724" height="138.15835302058724" width="395.5199999999999" id="textblock"><g><svg viewBox="0 0 395.5199999999999 138.15835302058724" height="138.15835302058724" width="395.5199999999999"><g transform="matrix(1,0,0,1,0,0)"><svg width="395.5199999999999" viewBox="1.1 -38.05 148.14000000000001 51.75" height="138.15835302058724" data-palette-color="url(#b021e273-639b-4937-b3e1-5b2b1375cd21)"><g class="wordmark-text-0" data-fill-palette-color="primary" id="text-0"></g></svg></g></svg></g></svg></g></svg></g><g transform="matrix(1,0,0,1,0,13.708071786702668)"><svg viewBox="0 0 110.7422094471819 110.7422094471819" height="110.7422094471819" width="110.7422094471819"><g><svg xmlns="http://www.w3.org/2000/svg" xmlns:xlink="http://www.w3.org/1999/xlink" version="1.1" x="0" y="0" viewBox="5 5 90 90" enable-background="new 0 0 100 100" xml:space="preserve" height="110.7422094471819" width="110.7422094471819" class="icon-icon-0" data-fill-palette-color="accent" id="icon-0"></svg></g></svg></g></svg></g></svg></g><defs></defs><mask id="2e794f0b-f905-45c7-9048-3cc637c40705"><g id="SvgjsG1622"><svg viewBox="0 0 395.52 101.40399792491034" height="101.40399792491034" width="395.52"><g><svg viewBox="0 0 395.52 101.40399792491034" height="101.40399792491034" width="395.52"><g><svg viewBox="0 0 538.87808079487 138.15835302058724" height="101.40399792491034" width="395.52"><g transform="matrix(1,0,0,1,143.35808079487006,0)"><svg viewBox="0 0 395.5199999999999 138.15835302058724" height="138.15835302058724" width="395.5199999999999"><g id="SvgjsG1621"><svg viewBox="0 0 395.5199999999999 138.15835302058724" height="138.15835302058724" width="395.5199999999999" id="SvgjsSvg1620"><g><svg viewBox="0 0 395.5199999999999 138.15835302058724" height="138.15835302058724" width="395.5199999999999"><g transform="matrix(1,0,0,1,0,0)"><svg width="395.5199999999999" viewBox="1.1 -38.05 148.14000000000001 51.75" height="138.15835302058724" data-palette-color="url(#b021e273-639b-4937-b3e1-5b2b1375cd21)"><g class="wordmark-text-0" data-fill-palette-color="primary" id="SvgjsG1619"><path d="M11.7-17.45L11.7-17.45Q8.8-15.4 8.8-11.35L8.8-11.35Q8.8-8.8 10.63-6.55 12.45-4.3 16.8-4.3 21.15-4.3 25.05-7.25 28.95-10.2 30.95-13.7L30.95-13.7 32.65-10.65Q26.2 0.3 14.7 0.3L14.7 0.3Q9 0.3 5.05-2.78 1.1-5.85 1.1-10L1.1-10Q1.1-17.25 7.55-20.5L7.55-20.5Q5.4-23.15 5.4-26.7L5.4-26.7Q5.4-31.35 9.43-34.7 13.45-38.05 18.75-38.05 24.05-38.05 26.93-35.35 29.8-32.65 29.8-28.25L29.8-28.25 25.05-28.25Q25.1-30.95 23.63-32.33 22.15-33.7 19.53-33.7 16.9-33.7 14.8-31.8L14.8-31.8Q12.45-29.75 12.45-27 12.45-24.25 13.95-22.25L13.95-22.25Q18.95-22.85 21.55-21.6L21.55-21.6Q23.15-20.85 23.15-19.23 23.15-17.6 21.33-16.95 19.5-16.3 16.95-16.3 14.4-16.3 11.7-17.45ZM25.7-16.55L26.15-20.85 45.25-20.85 44.8-16.55 25.7-16.55ZM69.45-15.3L69.45-15.3Q73.4-12.4 73.4-8.45 73.4-4.5 70.3-2.1 67.2 0.3 62.5 0.3L62.5 0.3Q59.45 0.3 57.42-1.23 55.4-2.75 55.4-5 55.4-7.25 56.9-8.58 58.4-9.9 60.65-10.2L60.65-10.2Q59.6-8.7 59.6-7.33 59.6-5.95 60.55-5.1L60.55-5.1Q61.5-4.25 62.95-4.25 64.4-4.25 65.35-5.33 66.3-6.4 66.3-7.8L66.3-7.8Q66.3-10.1 64.15-11.9L64.15-11.9Q62.85-12.95 61.35-13.88 59.85-14.8 59.75-14.85L59.75-14.85Q59.55-15 59.35-15.1L59.35-15.1Q58.45-14.05 56.75-12.23 55.05-10.4 54.05-9.3L54.05-9.3Q51.25-6.25 50.9-4.2L50.9-4.2Q50.8-3.8 50.8-2.68 50.8-1.55 51.47-0.35 52.15 0.85 53.1 1.45 54.05 2.05 54.97 2.43 55.9 2.8 56.57 2.95 57.25 3.1 57.25 3.15L57.25 3.15Q57.25 3.5 56.15 3.95L56.15 3.95Q54.1 4.7 51.87 4.7 49.65 4.7 47.55 3.1L47.55 3.1Q44.7 0.9 44.7-2.75L44.7-2.75Q44.7-5 45.85-7.2L45.85-7.2Q47.9-11.1 55.45-17.9L55.45-17.9Q53.6-19.75 53.6-21.85 53.6-23.95 55.17-25.4 56.75-26.85 58.9-26.85L58.9-26.85Q60.85-26.85 62.3-25.3L62.3-25.3Q63.25-24.25 63.25-22.65 63.25-21.05 62.2-19.05L62.2-19.05Q67.55-16.65 69.45-15.3ZM58.6-20.95L58.6-20.95Q59.8-22.2 59.8-22.75L59.8-22.75Q59.8-24 58.7-24.1L58.7-24.1Q57.45-24.1 57.45-22.7L57.45-22.7Q57.45-21.85 58.6-20.95ZM87.99-5.7L87.99-5.7 89.19-16.75Q89.19-18.1 88.49-19 87.79-19.9 86.24-19.9 84.69-19.9 83.62-18.68 82.54-17.45 82.04-15.45L82.04-15.45Q81.69-12.6 80.99-7.13 80.29-1.65 80.09 0L80.09 0 73.44 0Q77.04-30.65 77.79-37.65L77.79-37.65Q78.84-38.05 80.64-38.05L80.64-38.05Q84.54-38.05 84.54-35.75L84.54-35.75 84.54-35.45Q83.69-27.6 82.74-21.65L82.74-21.65Q85.39-24.05 88.74-24.05 92.09-24.05 94.04-22.35 95.99-20.65 95.99-18.05L95.99-18.05Q95.99-17.35 95.69-15.45L95.69-15.45Q94.54-7.95 94.54-6.65L94.54-6.65Q94.54-4.3 96.09-4.3L96.09-4.3Q97.39-4.3 98.87-6.03 100.34-7.75 101.24-11.35L101.24-11.35Q102.94-9.55 103.29-8.5L103.29-8.5Q100.69 0.2 94.09 0.2L94.09 0.2Q90.99 0.2 89.49-1.7 87.99-3.6 87.99-5.7ZM112.29-24.05L112.29-24.05Q116.89-24.05 119.97-21.1 123.04-18.15 123.04-13.9L123.04-13.9Q123.04-7.45 119.27-3.58 115.49 0.3 110.14 0.3 104.79 0.3 101.67-2.75 98.54-5.8 98.54-10.3L98.54-10.3Q98.54-16.6 102.39-20.3L102.39-20.3Q106.29-24.05 112.29-24.05ZM111.32-20Q108.94-20 107.34-17.3 105.74-14.6 105.59-10.5L105.59-10.5Q105.59-7.6 106.77-5.7 107.94-3.8 110.34-3.8 112.74-3.8 114.37-6.45 115.99-9.1 115.99-12.5 115.99-15.9 114.84-17.9L114.84-17.9Q113.69-20 111.32-20ZM130.69-24.1L130.69-24.1Q133.94-24.1 134.49-22.45L134.49-22.45Q136.84-24.1 140.44-24.1 144.04-24.1 146.64-21.15 149.24-18.2 149.24-14.25L149.24-14.25Q149.24-13.7 149.19-13.1L149.19-13.1Q148.64-6.55 144.79-3.13 140.94 0.3 134.74 0.3L134.74 0.3Q133.34 0.3 131.69-0.05L131.69-0.05 130.09 13.7 123.54 13.7Q126.74-13.85 127.84-23.7L127.84-23.7Q128.89-24.1 130.69-24.1ZM142.19-13.9L142.19-13.9Q142.19-16.1 141.19-17.8 140.19-19.5 138.09-19.5L138.09-19.5Q135.24-19.5 133.74-15.8L133.74-15.8Q132.74-8.4 132.59-7.2L132.59-7.2Q132.54-5.7 133.54-4.95 134.54-4.2 135.99-4.2L135.99-4.2Q138.54-4.2 140.19-6.5L140.19-6.5Q142.19-9.35 142.19-13.9Z" fill="white"></path></g></svg></g></svg></g></svg></g></svg></g><g transform="matrix(1,0,0,1,0,13.708071786702668)"><svg viewBox="0 0 110.7422094471819 110.7422094471819" height="110.7422094471819" width="110.7422094471819"><g><svg xmlns="http://www.w3.org/2000/svg" xmlns:xlink="http://www.w3.org/1999/xlink" version="1.1" x="0" y="0" viewBox="5 5 90 90" enable-background="new 0 0 100 100" xml:space="preserve" height="110.7422094471819" width="110.7422094471819" class="icon-icon-0" data-fill-palette-color="accent" id="SvgjsSvg1618"><g fill="black"><path d="M50 7c23.7 0 43 19.3 43 43S73.7 93 50 93 7 73.7 7 50 26.3 7 50 7M50 5C25.2 5 5 25.1 5 50c0 24.9 20.2 45 45 45s45-20.1 45-45C95 25.1 74.8 5 50 5L50 5z" fill="black"></path></g><g fill="black"><g fill="black"><path d="M61.7 40.7L58 52.9l-0.3 1H37c-0.1 0-0.1 0-0.1 0 0 0 0 0 0 0 0 0-0.2-0.3-0.5-1.1l-3.7-12.1H61.7M64.3 38.7H30l4.5 14.7c0.5 1.6 1.1 2.5 2.5 2.5h22.1l0.7-2.5 3.7-12.2L64.3 38.7 64.3 38.7z" fill="black"></path></g></g><circle cx="38.4" cy="66.7" r="1.9" fill="black"></circle><circle cx="54.4" cy="66.7" r="1.9" fill="black"></circle><g fill="black"><path d="M53 62.9H35v-2.5h18c1.9 0 2.4-0.5 2.7-1.6l0.5-1.6c1.1-3.3 3.3-10.3 4.5-14.5 1.4-5.1 3.4-11.3 3.4-11.3l0.3-0.9H70V33h-3.9c-0.6 1.9-2 6.5-3.1 10.4-1.2 4.2-3.4 11.2-4.5 14.6l-0.5 1.6C57.3 61.8 55.7 62.9 53 62.9L53 62.9z" fill="black"></path></g></svg></g></svg></g></svg></g></svg></g><defs><mask></mask></defs></svg><rect width="395.52" height="101.40399792491034" fill="black" stroke="none" visibility="hidden"></rect></g></mask><linearGradient x1="0.054" x2="0.941" y1="0.5" y2="0.5" id="b021e273-639b-4937-b3e1-5b2b1375cd21"><stop stop-color="#eaa79c" offset="0"></stop><stop stop-color="#f2e8cb" offset="0.498"></stop><stop stop-color="#eaa79c" offset="1"></stop></linearGradient><rect width="395.52" height="101.40399792491034" fill="url(#b021e273-639b-4937-b3e1-5b2b1375cd21)" mask="url(#2e794f0b-f905-45c7-9048-3cc637c40705)" data-fill-palette-color="primary"></rect><mask id="54845c2f-5a71-4e5f-9c5f-571f923132f1"><g id="SvgjsG1643"><svg viewBox="0 0 395.52 101.40399792491034" height="101.40399792491034" width="395.52"><g><svg viewBox="0 0 395.52 101.40399792491034" height="101.40399792491034" width="395.52"><g><svg viewBox="0 0 538.87808079487 138.15835302058724" height="101.40399792491034" width="395.52"><g transform="matrix(1,0,0,1,143.35808079487006,0)"><svg viewBox="0 0 395.5199999999999 138.15835302058724" height="138.15835302058724" width="395.5199999999999"><g id="SvgjsG1642"><svg viewBox="0 0 395.5199999999999 138.15835302058724" height="138.15835302058724" width="395.5199999999999" id="SvgjsSvg1641"><g><svg viewBox="0 0 395.5199999999999 138.15835302058724" height="138.15835302058724" width="395.5199999999999"><g transform="matrix(1,0,0,1,0,0)"><svg width="395.5199999999999" viewBox="1.1 -38.05 148.14000000000001 51.75" height="138.15835302058724" data-palette-color="url(#b021e273-639b-4937-b3e1-5b2b1375cd21)"><g class="wordmark-text-0" data-fill-palette-color="primary" id="SvgjsG1640"></g></svg></g></svg></g></svg></g></svg></g><g transform="matrix(1,0,0,1,0,13.708071786702668)"><svg viewBox="0 0 110.7422094471819 110.7422094471819" height="110.7422094471819" width="110.7422094471819"><g><svg xmlns="http://www.w3.org/2000/svg" xmlns:xlink="http://www.w3.org/1999/xlink" version="1.1" x="0" y="0" viewBox="5 5 90 90" enable-background="new 0 0 100 100" xml:space="preserve" height="110.7422094471819" width="110.7422094471819" class="icon-icon-0" data-fill-palette-color="accent" id="SvgjsSvg1639"><g fill="white"><path d="M50 7c23.7 0 43 19.3 43 43S73.7 93 50 93 7 73.7 7 50 26.3 7 50 7M50 5C25.2 5 5 25.1 5 50c0 24.9 20.2 45 45 45s45-20.1 45-45C95 25.1 74.8 5 50 5L50 5z" fill="white"></path></g><g fill="white"><g fill="white"><path d="M61.7 40.7L58 52.9l-0.3 1H37c-0.1 0-0.1 0-0.1 0 0 0 0 0 0 0 0 0-0.2-0.3-0.5-1.1l-3.7-12.1H61.7M64.3 38.7H30l4.5 14.7c0.5 1.6 1.1 2.5 2.5 2.5h22.1l0.7-2.5 3.7-12.2L64.3 38.7 64.3 38.7z" fill="white"></path></g></g><circle cx="38.4" cy="66.7" r="1.9" fill="white"></circle><circle cx="54.4" cy="66.7" r="1.9" fill="white"></circle><g fill="white"><path d="M53 62.9H35v-2.5h18c1.9 0 2.4-0.5 2.7-1.6l0.5-1.6c1.1-3.3 3.3-10.3 4.5-14.5 1.4-5.1 3.4-11.3 3.4-11.3l0.3-0.9H70V33h-3.9c-0.6 1.9-2 6.5-3.1 10.4-1.2 4.2-3.4 11.2-4.5 14.6l-0.5 1.6C57.3 61.8 55.7 62.9 53 62.9L53 62.9z" fill="white"></path></g></svg></g></svg></g></svg></g></svg></g><defs><mask></mask></defs><mask><g id="SvgjsG1638"><svg viewBox="0 0 395.52 101.40399792491034" height="101.40399792491034" width="395.52"><g><svg viewBox="0 0 395.52 101.40399792491034" height="101.40399792491034" width="395.52"><g><svg viewBox="0 0 538.87808079487 138.15835302058724" height="101.40399792491034" width="395.52"><g transform="matrix(1,0,0,1,143.35808079487006,0)"><svg viewBox="0 0 395.5199999999999 138.15835302058724" height="138.15835302058724" width="395.5199999999999"><g id="SvgjsG1637"><svg viewBox="0 0 395.5199999999999 138.15835302058724" height="138.15835302058724" width="395.5199999999999" id="SvgjsSvg1636"><g><svg viewBox="0 0 395.5199999999999 138.15835302058724" height="138.15835302058724" width="395.5199999999999"><g transform="matrix(1,0,0,1,0,0)"><svg width="395.5199999999999" viewBox="1.1 -38.05 148.14000000000001 51.75" height="138.15835302058724" data-palette-color="url(#b021e273-639b-4937-b3e1-5b2b1375cd21)"><g class="wordmark-text-0" data-fill-palette-color="primary" id="SvgjsG1635"><path d="M11.7-17.45L11.7-17.45Q8.8-15.4 8.8-11.35L8.8-11.35Q8.8-8.8 10.63-6.55 12.45-4.3 16.8-4.3 21.15-4.3 25.05-7.25 28.95-10.2 30.95-13.7L30.95-13.7 32.65-10.65Q26.2 0.3 14.7 0.3L14.7 0.3Q9 0.3 5.05-2.78 1.1-5.85 1.1-10L1.1-10Q1.1-17.25 7.55-20.5L7.55-20.5Q5.4-23.15 5.4-26.7L5.4-26.7Q5.4-31.35 9.43-34.7 13.45-38.05 18.75-38.05 24.05-38.05 26.93-35.35 29.8-32.65 29.8-28.25L29.8-28.25 25.05-28.25Q25.1-30.95 23.63-32.33 22.15-33.7 19.53-33.7 16.9-33.7 14.8-31.8L14.8-31.8Q12.45-29.75 12.45-27 12.45-24.25 13.95-22.25L13.95-22.25Q18.95-22.85 21.55-21.6L21.55-21.6Q23.15-20.85 23.15-19.23 23.15-17.6 21.33-16.95 19.5-16.3 16.95-16.3 14.4-16.3 11.7-17.45ZM25.7-16.55L26.15-20.85 45.25-20.85 44.8-16.55 25.7-16.55ZM69.45-15.3L69.45-15.3Q73.4-12.4 73.4-8.45 73.4-4.5 70.3-2.1 67.2 0.3 62.5 0.3L62.5 0.3Q59.45 0.3 57.42-1.23 55.4-2.75 55.4-5 55.4-7.25 56.9-8.58 58.4-9.9 60.65-10.2L60.65-10.2Q59.6-8.7 59.6-7.33 59.6-5.95 60.55-5.1L60.55-5.1Q61.5-4.25 62.95-4.25 64.4-4.25 65.35-5.33 66.3-6.4 66.3-7.8L66.3-7.8Q66.3-10.1 64.15-11.9L64.15-11.9Q62.85-12.95 61.35-13.88 59.85-14.8 59.75-14.85L59.75-14.85Q59.55-15 59.35-15.1L59.35-15.1Q58.45-14.05 56.75-12.23 55.05-10.4 54.05-9.3L54.05-9.3Q51.25-6.25 50.9-4.2L50.9-4.2Q50.8-3.8 50.8-2.68 50.8-1.55 51.47-0.35 52.15 0.85 53.1 1.45 54.05 2.05 54.97 2.43 55.9 2.8 56.57 2.95 57.25 3.1 57.25 3.15L57.25 3.15Q57.25 3.5 56.15 3.95L56.15 3.95Q54.1 4.7 51.87 4.7 49.65 4.7 47.55 3.1L47.55 3.1Q44.7 0.9 44.7-2.75L44.7-2.75Q44.7-5 45.85-7.2L45.85-7.2Q47.9-11.1 55.45-17.9L55.45-17.9Q53.6-19.75 53.6-21.85 53.6-23.95 55.17-25.4 56.75-26.85 58.9-26.85L58.9-26.85Q60.85-26.85 62.3-25.3L62.3-25.3Q63.25-24.25 63.25-22.65 63.25-21.05 62.2-19.05L62.2-19.05Q67.55-16.65 69.45-15.3ZM58.6-20.95L58.6-20.95Q59.8-22.2 59.8-22.75L59.8-22.75Q59.8-24 58.7-24.1L58.7-24.1Q57.45-24.1 57.45-22.7L57.45-22.7Q57.45-21.85 58.6-20.95ZM87.99-5.7L87.99-5.7 89.19-16.75Q89.19-18.1 88.49-19 87.79-19.9 86.24-19.9 84.69-19.9 83.62-18.68 82.54-17.45 82.04-15.45L82.04-15.45Q81.69-12.6 80.99-7.13 80.29-1.65 80.09 0L80.09 0 73.44 0Q77.04-30.65 77.79-37.65L77.79-37.65Q78.84-38.05 80.64-38.05L80.64-38.05Q84.54-38.05 84.54-35.75L84.54-35.75 84.54-35.45Q83.69-27.6 82.74-21.65L82.74-21.65Q85.39-24.05 88.74-24.05 92.09-24.05 94.04-22.35 95.99-20.65 95.99-18.05L95.99-18.05Q95.99-17.35 95.69-15.45L95.69-15.45Q94.54-7.95 94.54-6.65L94.54-6.65Q94.54-4.3 96.09-4.3L96.09-4.3Q97.39-4.3 98.87-6.03 100.34-7.75 101.24-11.35L101.24-11.35Q102.94-9.55 103.29-8.5L103.29-8.5Q100.69 0.2 94.09 0.2L94.09 0.2Q90.99 0.2 89.49-1.7 87.99-3.6 87.99-5.7ZM112.29-24.05L112.29-24.05Q116.89-24.05 119.97-21.1 123.04-18.15 123.04-13.9L123.04-13.9Q123.04-7.45 119.27-3.58 115.49 0.3 110.14 0.3 104.79 0.3 101.67-2.75 98.54-5.8 98.54-10.3L98.54-10.3Q98.54-16.6 102.39-20.3L102.39-20.3Q106.29-24.05 112.29-24.05ZM111.32-20Q108.94-20 107.34-17.3 105.74-14.6 105.59-10.5L105.59-10.5Q105.59-7.6 106.77-5.7 107.94-3.8 110.34-3.8 112.74-3.8 114.37-6.45 115.99-9.1 115.99-12.5 115.99-15.9 114.84-17.9L114.84-17.9Q113.69-20 111.32-20ZM130.69-24.1L130.69-24.1Q133.94-24.1 134.49-22.45L134.49-22.45Q136.84-24.1 140.44-24.1 144.04-24.1 146.64-21.15 149.24-18.2 149.24-14.25L149.24-14.25Q149.24-13.7 149.19-13.1L149.19-13.1Q148.64-6.55 144.79-3.13 140.94 0.3 134.74 0.3L134.74 0.3Q133.34 0.3 131.69-0.05L131.69-0.05 130.09 13.7 123.54 13.7Q126.74-13.85 127.84-23.7L127.84-23.7Q128.89-24.1 130.69-24.1ZM142.19-13.9L142.19-13.9Q142.19-16.1 141.19-17.8 140.19-19.5 138.09-19.5L138.09-19.5Q135.24-19.5 133.74-15.8L133.74-15.8Q132.74-8.4 132.59-7.2L132.59-7.2Q132.54-5.7 133.54-4.95 134.54-4.2 135.99-4.2L135.99-4.2Q138.54-4.2 140.19-6.5L140.19-6.5Q142.19-9.35 142.19-13.9Z" fill="black"></path></g></svg></g></svg></g></svg></g></svg></g><g transform="matrix(1,0,0,1,0,13.708071786702668)"><svg viewBox="0 0 110.7422094471819 110.7422094471819" height="110.7422094471819" width="110.7422094471819"><g><svg xmlns="http://www.w3.org/2000/svg" xmlns:xlink="http://www.w3.org/1999/xlink" version="1.1" x="0" y="0" viewBox="5 5 90 90" enable-background="new 0 0 100 100" xml:space="preserve" height="110.7422094471819" width="110.7422094471819" class="icon-icon-0" data-fill-palette-color="accent" id="SvgjsSvg1634"><g fill="black"><path d="M50 7c23.7 0 43 19.3 43 43S73.7 93 50 93 7 73.7 7 50 26.3 7 50 7M50 5C25.2 5 5 25.1 5 50c0 24.9 20.2 45 45 45s45-20.1 45-45C95 25.1 74.8 5 50 5L50 5z" fill="black"></path></g><g fill="black"><g fill="black"><path d="M61.7 40.7L58 52.9l-0.3 1H37c-0.1 0-0.1 0-0.1 0 0 0 0 0 0 0 0 0-0.2-0.3-0.5-1.1l-3.7-12.1H61.7M64.3 38.7H30l4.5 14.7c0.5 1.6 1.1 2.5 2.5 2.5h22.1l0.7-2.5 3.7-12.2L64.3 38.7 64.3 38.7z" fill="black"></path></g></g><circle cx="38.4" cy="66.7" r="1.9" fill="black"></circle><circle cx="54.4" cy="66.7" r="1.9" fill="black"></circle><g fill="black"><path d="M53 62.9H35v-2.5h18c1.9 0 2.4-0.5 2.7-1.6l0.5-1.6c1.1-3.3 3.3-10.3 4.5-14.5 1.4-5.1 3.4-11.3 3.4-11.3l0.3-0.9H70V33h-3.9c-0.6 1.9-2 6.5-3.1 10.4-1.2 4.2-3.4 11.2-4.5 14.6l-0.5 1.6C57.3 61.8 55.7 62.9 53 62.9L53 62.9z" fill="black"></path></g></svg></g></svg></g></svg></g></svg></g><defs><mask></mask></defs></svg><rect width="395.52" height="101.40399792491034" fill="black" stroke="none" visibility="hidden"></rect></g></mask></svg><rect width="395.52" height="101.40399792491034" fill="black" stroke="none" visibility="hidden"></rect></g></mask><linearGradient x1="0.054" x2="0.941" y1="0.5" y2="0.5" id="7270f406-15ef-41ed-9e14-1d99a30be00a"><stop stop-color="#9c7945" offset="0"></stop><stop stop-color="#faf3aa" offset="0.498"></stop><stop stop-color="#9c7945" offset="1"></stop></linearGradient><rect width="395.52" height="101.40399792491034" fill="url(#7270f406-15ef-41ed-9e14-1d99a30be00a)" mask="url(#54845c2f-5a71-4e5f-9c5f-571f923132f1)" data-fill-palette-color="accent"></rect></svg><rect width="395.52" height="101.40399792491034" fill="none" stroke="none" visibility="hidden"></rect></g></svg></g></svg>